<svg height="24" viewBox="0 0 24 24" width="24" xmlns="http://www.w3.org/2000/svg"><g fill="#f05a22"><path d="m14.25 0h-4.5a9.73 9.73 0 0 0 -5.15 18h-.1v6l6.75-4.5h3a9.75 9.75 0 0 0 0-19.5zm0 17.5h-3l-5.076 3.376.326-3.79c-2.616-.929-4.5-3.835-4.5-7.336a7.814 7.814 0 0 1 7.75-7.75h4.5a7.647 7.647 0 0 1 7.75 7.75 7.647 7.647 0 0 1 -7.75 7.75z"/><rect height="2.647" rx="1.324" width="2.647" x="6.353" y="9"/><rect height="2.647" rx="1.324" width="2.647" x="11.647" y="9"/><rect height="2.647" rx="1.324" width="2.647" x="16.941" y="9"/></g></svg>