<svg xmlns="http://www.w3.org/2000/svg" width="24" height="24" viewBox="0 0 24 24"><defs><style>.a{fill:#f05a22;}</style></defs><path class="a" d="M14.25,0H9.75A9.73,9.73,0,0,0,4.6,18H4.5v6l6.75-4.5h3a9.75,9.75,0,0,0,0-19.5Zm0,17.5h-3L6.174,20.876l.326-3.79C3.884,16.157,2,13.251,2,9.75A7.814,7.814,0,0,1,9.75,2h4.5A7.647,7.647,0,0,1,22,9.75,7.647,7.647,0,0,1,14.25,17.5Z"/><rect class="a" width="2.647" height="2.647" rx="1.324" transform="translate(6.353 9)"/><rect class="a" width="2.647" height="2.647" rx="1.324" transform="translate(11.647 9)"/><rect class="a" width="2.647" height="2.647" rx="1.324" transform="translate(16.941 9)"/></svg>