<svg height="24" viewBox="0 0 24 24" width="24" xmlns="http://www.w3.org/2000/svg"><path d="m0 0h24v24h-24z" fill="none"/><g fill="#ee3f47" stroke="#ed454d" stroke-width=".3" transform="translate(3 3)"><path d="m85.987 344.6a1.371 1.371 0 1 1 1.371-1.371 1.371 1.371 0 0 1 -1.371 1.371" transform="translate(-69.867 -341.853)"/><path d="m88.134 349.482a1.363 1.363 0 0 0 -1.18.685h-5.268a1.373 1.373 0 0 0 -.5-.5v-5.267a1.371 1.371 0 1 0 -1.371 0v5.267a1.373 1.373 0 0 0 -.5.5h-5.258a1.371 1.371 0 1 0 0 1.371h5.267a1.374 1.374 0 0 0 .5.5v5.262a1.371 1.371 0 1 0 1.371 0v-5.267a1.374 1.374 0 0 0 .5-.5h5.267a1.368 1.368 0 1 0 1.18-2.056" transform="translate(-71.505 -341.853)"/><path d="m7.629 16.629a1.367 1.367 0 0 1 .686-1.182v-5.267a1.365 1.365 0 0 1 -.5-.5h-5.263a1.371 1.371 0 1 1 0-1.371h5.267a1.376 1.376 0 0 1 .5-.5v-5.258a1.371 1.371 0 1 1 1.371 0v5.267a1.386 1.386 0 0 1 .5.5h5.267a1.371 1.371 0 1 1 0 1.371h-5.276a1.375 1.375 0 0 1 -.5.5v5.267a1.369 1.369 0 1 1 -2.056 1.182zm7.12-15.258a1.371 1.371 0 1 1 1.372 1.371 1.371 1.371 0 0 1 -1.372-1.371z"/></g></svg>