<svg height="24" viewBox="0 0 24 24" width="24" xmlns="http://www.w3.org/2000/svg"><path d="m0 0h24v24h-24z" fill="none"/><path d="m17.306 3.607-.042-.042-2.94-2.792a2.8 2.8 0 0 0 -1.937-.773h-6.732a2.813 2.813 0 0 0 -1.934.77l-2.953 2.795-.042.042a2.805 2.805 0 0 0 -.7 1.561.647.647 0 0 0 -.014.144v.035a2.8 2.8 0 0 0 .5 1.723l6.788 10.055a.123.123 0 0 1 .018.028 2.078 2.078 0 0 0 1.673.847h.035a2.088 2.088 0 0 0 1.67-.847.077.077 0 0 0 .018-.028l6.18-9.137a.7.7 0 1 0 -1.167-.788l-5.505 8.153 2.327-9.341h3.945a1.523 1.523 0 0 1 -.141.257s0 0 0 .007l-.577.854a.7.7 0 1 0 1.167.787l.577-.851a2.814 2.814 0 0 0 -.214-3.459zm-8.343-2.134 1.818 3.136h-3.586zm-7.207 3.087 2.932-2.77a1.394 1.394 0 0 1 .967-.383h1.733l-1.807 3.2h-3.864a.473.473 0 0 0 .039-.047zm-.081 1.722v-.007a1.335 1.335 0 0 1 -.141-.26h3.91l2.356 9.327zm7.334 8.125-2.117-8.392h4.208zm3.4-9.8-1.856-3.2h1.839a1.391 1.391 0 0 1 .967.387l2.91 2.766a.472.472 0 0 1 .039.049z" fill="#1f85ba" transform="translate(2.987 3)"/></svg>