<svg height="24" viewBox="0 0 24 24" width="24" xmlns="http://www.w3.org/2000/svg"><path d="m17.475.525a1.789 1.789 0 0 0 -1.405-.52 13.969 13.969 0 0 0 -4.235 1.014 14.443 14.443 0 0 0 -5.571 4.091 7.353 7.353 0 0 0 -4.715 2.183 7.6 7.6 0 0 0 -1.493 2.116.589.589 0 0 0 .784.784 5.942 5.942 0 0 1 2.9-.577q-.1.308-.195.621l-1.88 1.128a.589.589 0 0 0 -.113.921l.868.868a13.307 13.307 0 0 0 -.89 1.334 6.286 6.286 0 0 0 -.536 1.126 1.158 1.158 0 0 0 .141 1.251 1.181 1.181 0 0 0 1.251.141 6.289 6.289 0 0 0 1.126-.536 13.305 13.305 0 0 0 1.334-.89l.868.868a.589.589 0 0 0 .921-.113l1.128-1.88q.314-.09.621-.195a5.943 5.943 0 0 1 -.577 2.9.589.589 0 0 0 .784.784 7.6 7.6 0 0 0 2.117-1.492 7.354 7.354 0 0 0 2.183-4.715 14.466 14.466 0 0 0 1.877-1.886 14.341 14.341 0 0 0 2.212-3.686 13.97 13.97 0 0 0 1.014-4.235 1.788 1.788 0 0 0 -.519-1.405zm-15.506 8.055q.2-.236.413-.454a6.306 6.306 0 0 1 2.888-1.67 14.007 14.007 0 0 0 -1.09 2.019 6.882 6.882 0 0 0 -2.211.105zm1.174 6.74a6.725 6.725 0 0 1 -.978.515 6.721 6.721 0 0 1 .515-.978c.2-.322.4-.623.578-.859l.742.744c-.234.174-.535.38-.857.578zm2.868-.235-3.1-3.1 1.041-.624 2.68 2.68zm3.409.946a6.879 6.879 0 0 0 .1-2.211 14.008 14.008 0 0 0 2.019-1.09 6.371 6.371 0 0 1 -2.119 3.301zm-1.871-2.738-2.842-2.842a13.045 13.045 0 0 1 5.934-7.543l4.451 4.451a13.048 13.048 0 0 1 -7.543 5.934zm9.271-11.455a12.928 12.928 0 0 1 -1.158 4.426l-3.926-3.927a12.928 12.928 0 0 1 4.426-1.158.613.613 0 0 1 .659.659z" fill="#ef602a" stroke="#ef602a" stroke-width=".2" transform="translate(3.001 3)"/><path d="m0 0h24v24h-24z" fill="none"/></svg>