<svg height="24" viewBox="0 0 24 24" width="24" xmlns="http://www.w3.org/2000/svg"><path d="m0 0h24v24h-24z" fill="none"/><path d="m16.058 9.2h2.142a1.8 1.8 0 0 1 1.8 1.8v7.2a1.8 1.8 0 0 1 -1.8 1.8h-10.35a2.671 2.671 0 0 1 -2.466-1.611l-3.15-6.3-.027-.054a2.7 2.7 0 0 1 2.493-3.735h4.5v-4.5a1.805 1.805 0 0 1 1.8-1.8h1.458zm-1.458 1.116-3.258-6.516h-.342v6.3h-6.3a.9.9 0 0 0 -.837 1.224l3.15 6.318a.9.9 0 0 0 .837.558h6.75zm1.8.684v7.2h1.8v-7.2z" fill="#9a4ff0" stroke="#1d2025" stroke-width=".3" transform="translate(1.499 1.5)"/></svg>